<?xml version="1.0" standalone="no"?>
<!DOCTYPE svg PUBLIC "-//W3C//DTD SVG 20010904//EN"
 "http://www.w3.org/TR/2001/REC-SVG-20010904/DTD/svg10.dtd">
<svg version="1.0" xmlns="http://www.w3.org/2000/svg"
 width="934.000000pt" height="934.000000pt" viewBox="0 0 934.000000 934.000000"
 preserveAspectRatio="xMidYMid meet">
<metadata>
Created by potrace 1.11, written by Peter Selinger 2001-2013
</metadata>
<g transform="translate(0.000000,934.000000) scale(0.100000,-0.100000)"
fill="#000000" stroke="none">
<path d="M6938 6495 c-2 -2 -49 -6 -105 -9 -55 -4 -112 -9 -125 -11 -12 -2
-45 -6 -73 -9 -168 -18 -268 -39 -462 -100 -59 -18 -209 -57 -333 -86 -123
-28 -227 -53 -230 -55 -3 -2 -21 -6 -40 -9 -19 -3 -118 -24 -220 -47 -102 -22
-196 -43 -210 -46 -14 -2 -93 -20 -177 -39 -193 -43 -476 -103 -522 -110 -20
-3 -42 -7 -48 -9 -7 -2 -43 -7 -80 -11 -38 -3 -70 -8 -73 -9 -3 -2 -42 -7 -85
-10 -44 -4 -87 -9 -96 -10 -9 -2 -52 -6 -95 -10 -43 -4 -90 -8 -104 -10 -14
-2 -59 -7 -100 -10 -41 -3 -91 -8 -110 -10 -19 -2 -78 -7 -130 -11 -52 -3
-111 -7 -130 -9 -265 -26 -1134 -26 -1335 0 -16 2 -70 6 -120 10 -49 3 -103 8
-120 10 -16 2 -57 6 -90 10 -33 3 -71 7 -85 9 -14 3 -54 7 -90 11 -36 3 -80 8
-97 11 -18 2 -48 6 -65 8 -111 15 -136 18 -158 22 -14 2 -45 6 -70 9 -25 3
-67 10 -95 15 -27 5 -86 14 -130 21 -44 6 -89 13 -100 15 -11 2 -49 9 -85 14
-36 5 -90 14 -120 20 -30 6 -71 13 -90 16 -19 3 -80 14 -135 24 -55 11 -131
22 -170 25 -38 3 -81 9 -95 12 -25 6 -25 6 -7 -15 19 -21 100 -63 172 -89 38
-14 217 -61 261 -69 12 -2 82 -18 155 -35 74 -17 145 -33 159 -35 14 -3 104
-23 200 -44 209 -46 185 -41 392 -84 92 -19 191 -37 220 -40 29 -3 62 -8 73
-10 46 -8 290 -34 390 -41 28 -2 84 -6 125 -10 156 -12 178 -14 300 -20 217
-11 300 -14 500 -20 246 -8 566 -14 784 -14 l168 -1 -58 -40 c-148 -99 -242
-225 -290 -385 -25 -82 -25 -276 -1 -321 21 -41 70 -82 127 -107 57 -26 187
-27 278 -4 117 31 168 64 282 180 142 147 245 219 400 280 72 28 198 63 263
72 23 3 49 8 57 10 8 2 47 7 85 11 39 3 79 8 90 11 23 5 314 4 425 -2 105 -5
232 -19 270 -30 8 -2 31 -7 50 -10 69 -11 448 -108 615 -156 192 -56 223 -66
565 -177 135 -44 286 -92 335 -107 50 -15 133 -46 185 -68 87 -37 103 -41 189
-43 202 -4 355 81 531 295 103 126 426 420 537 490 111 69 167 147 166 231 0
52 -32 123 -66 144 -28 18 -117 43 -182 51 -27 3 -66 8 -85 10 -19 3 -105 8
-190 11 -127 5 -162 10 -195 26 -58 29 -165 109 -282 211 -171 147 -199 162
-456 242 -139 43 -134 41 -257 59 -78 12 -472 20 -482 11z m510 -91 c103 -20
103 -20 171 -48 39 -15 99 -55 155 -99 145 -118 399 -304 473 -348 99 -58 175
-77 328 -83 143 -6 176 -10 251 -32 68 -19 134 -89 134 -141 0 -26 -32 -54
-195 -169 -155 -110 -193 -132 -343 -204 -269 -129 -409 -140 -557 -45 -92 59
-135 126 -150 238 -5 35 -16 59 -40 85 -36 40 -48 47 -205 115 -132 57 -112
108 60 151 52 13 128 38 168 54 75 31 182 91 182 103 0 3 -20 3 -44 -1 -24 -3
-126 -7 -227 -8 -290 -3 -388 32 -406 143 -8 47 23 86 97 122 55 27 60 31 44
44 -11 9 -42 13 -98 13 -95 -2 -187 -29 -329 -100 -104 -52 -174 -81 -214 -89
-222 -45 -367 -39 -558 21 -57 18 -158 65 -152 70 5 6 238 71 317 89 36 9 83
20 104 26 22 6 49 13 60 15 12 2 80 15 151 29 299 59 663 81 823 49z m-1713
-307 c118 -12 229 -48 369 -118 85 -44 292 -170 306 -188 3 -3 28 -24 55 -46
28 -21 92 -81 144 -133 52 -51 113 -106 135 -121 51 -35 335 -209 396 -243 25
-14 63 -35 85 -48 198 -113 486 -246 634 -292 42 -13 60 -23 53 -30 -44 -44
-291 23 -662 178 -541 225 -702 284 -990 360 -154 41 -194 47 -385 59 -223 14
-336 46 -424 121 -139 117 -47 282 203 364 112 37 121 55 25 54 -102 -1 -166
-11 -299 -48 -186 -51 -257 -82 -357 -154 -101 -73 -207 -156 -234 -185 l-29
-29 22 63 c67 202 248 327 574 399 118 26 128 28 224 36 41 4 77 8 78 10 2 1
9 1 15 -1 7 -2 35 -6 62 -8z m-1108 -409 c-117 -116 -191 -238 -262 -438 -47
-133 -94 -217 -152 -274 -111 -110 -281 -137 -365 -58 -38 35 -47 70 -45 160
2 69 7 88 41 157 104 210 435 431 761 509 101 24 102 21 22 -56z"/>
<path d="M1895 4604 c-76 -11 -342 -85 -410 -113 -11 -5 -40 -17 -64 -27 -52
-22 -147 -91 -251 -184 -98 -86 -206 -165 -261 -189 -33 -15 -79 -21 -189 -26
-223 -10 -291 -18 -400 -46 -77 -21 -123 -83 -123 -169 -1 -85 51 -157 169
-234 38 -24 78 -52 89 -63 11 -10 49 -43 85 -73 145 -122 292 -267 387 -381
142 -171 281 -253 452 -266 91 -7 155 5 246 47 36 17 116 46 178 65 111 33
152 47 437 140 208 67 431 136 457 141 12 2 35 9 50 15 100 38 611 156 758
175 92 11 523 19 570 10 11 -2 52 -7 90 -11 39 -4 79 -9 90 -11 11 -3 36 -7
55 -10 78 -12 250 -67 330 -106 111 -53 207 -127 312 -237 139 -148 259 -204
432 -204 127 1 206 38 257 119 19 31 23 53 25 138 6 237 -101 437 -310 577
l-58 39 158 1 c285 0 889 14 1084 24 250 13 301 16 360 20 36 2 101 7 145 10
44 3 103 7 130 10 28 2 82 7 120 11 39 3 86 8 105 10 89 11 267 35 286 38 12
3 39 7 60 11 77 12 101 17 254 51 85 19 166 37 181 39 14 3 85 18 158 35 73
16 143 32 155 34 54 11 348 78 406 92 98 24 219 73 278 112 28 19 52 36 52 38
0 1 -14 -1 -31 -6 -18 -5 -64 -12 -103 -15 -78 -6 -99 -9 -201 -30 -38 -8 -88
-17 -110 -20 -22 -3 -51 -8 -65 -11 -14 -2 -36 -6 -50 -9 -13 -3 -42 -7 -65
-10 -22 -3 -62 -10 -90 -15 -56 -10 -112 -19 -165 -26 -19 -2 -60 -9 -90 -14
-30 -5 -75 -12 -100 -15 -25 -3 -56 -7 -70 -10 -14 -2 -45 -7 -70 -10 -25 -3
-56 -8 -70 -10 -14 -2 -47 -7 -75 -10 -58 -6 -127 -15 -170 -20 -17 -2 -82 -9
-145 -15 -63 -6 -137 -13 -165 -15 -330 -35 -1181 -41 -1435 -11 -19 3 -82 7
-140 11 -58 3 -123 8 -145 10 -22 2 -71 7 -110 11 -38 4 -83 8 -100 9 -44 4
-254 25 -295 30 -19 3 -57 7 -85 10 -58 7 -237 36 -305 50 -14 3 -61 12 -105
21 -44 8 -93 19 -110 24 -16 5 -41 11 -55 14 -14 2 -77 16 -140 30 -63 15
-130 29 -149 32 -19 3 -45 10 -58 15 -13 5 -23 7 -23 4 0 -2 -15 1 -32 6 -18
5 -46 12 -63 15 -47 8 -511 113 -600 136 -44 11 -93 22 -109 25 -16 3 -104 27
-195 54 -90 27 -178 52 -195 55 -16 3 -32 6 -35 8 -3 2 -28 7 -56 10 -27 4
-77 11 -110 16 -33 5 -89 12 -124 15 -35 4 -82 9 -105 12 -109 12 -535 10
-621 -3z m480 -77 c17 -3 59 -9 95 -13 36 -4 67 -8 70 -9 6 -2 88 -15 120 -21
136 -21 465 -101 611 -147 l74 -24 -55 -25 c-56 -25 -139 -55 -178 -63 -12 -3
-32 -7 -44 -10 -150 -33 -343 -23 -487 25 -36 12 -109 44 -163 71 -127 64
-232 99 -313 103 -61 4 -135 -9 -135 -24 0 -4 21 -15 46 -25 58 -22 114 -77
114 -111 0 -36 -37 -98 -70 -117 -62 -37 -145 -47 -365 -43 -115 2 -221 7
-235 10 l-25 5 25 -19 c71 -54 243 -127 355 -150 73 -15 111 -33 126 -61 16
-32 -17 -60 -120 -103 -48 -20 -106 -49 -129 -64 -48 -30 -82 -90 -82 -143 0
-87 -81 -187 -194 -240 -139 -65 -260 -46 -531 81 -109 52 -212 115 -354 217
-166 120 -177 133 -150 186 47 92 133 123 364 133 156 6 203 16 300 64 72 36
356 240 525 378 84 68 165 107 265 126 44 8 89 17 100 19 26 6 400 0 440 -6z
m1470 -322 c50 -8 101 -17 115 -21 14 -3 43 -10 65 -14 197 -43 375 -145 459
-264 44 -62 104 -213 68 -171 -9 11 -39 38 -67 60 -27 22 -52 42 -55 45 -19
19 -136 103 -187 134 -126 77 -393 154 -558 160 -134 5 -141 -11 -22 -49 112
-36 171 -70 223 -128 46 -51 69 -110 58 -151 -11 -46 -73 -105 -149 -141 -65
-31 -95 -40 -210 -59 -16 -3 -77 -8 -135 -11 -179 -9 -212 -14 -385 -60 -263
-69 -476 -147 -1007 -368 -146 -61 -369 -141 -464 -166 -67 -18 -150 -21 -170
-7 -15 12 -7 17 67 41 233 77 590 259 964 493 142 89 172 112 290 229 254 248
596 435 843 459 31 4 58 7 59 8 5 5 112 -6 198 -19z m985 -372 c209 -68 395
-177 531 -313 132 -131 185 -258 165 -394 -17 -108 -121 -159 -253 -121 -149
42 -231 142 -314 380 -63 180 -140 308 -256 423 l-74 73 48 -6 c26 -4 95 -23
153 -42z"/>
</g>
</svg>
